<?xml version="1.0" encoding="UTF-8" standalone="no"?>
<!-- Created with Inkscape (http://www.inkscape.org/) -->

<svg
   width="210mm"
   height="297mm"
   viewBox="0 0 210 297"
   version="1.1"
   id="svg5"
   inkscape:version="1.4.2 (ebf0e940d0, 2025-05-08)"
   sodipodi:docname="carte.svg"
   xmlns:inkscape="http://www.inkscape.org/namespaces/inkscape"
   xmlns:sodipodi="http://sodipodi.sourceforge.net/DTD/sodipodi-0.dtd"
   xmlns="http://www.w3.org/2000/svg"
   xmlns:svg="http://www.w3.org/2000/svg">
  <sodipodi:namedview
     id="namedview7"
     pagecolor="#505050"
     bordercolor="#eeeeee"
     borderopacity="1"
     inkscape:pageshadow="0"
     inkscape:pageopacity="0"
     inkscape:pagecheckerboard="0"
     inkscape:document-units="mm"
     showgrid="false"
     inkscape:zoom="0.15628708"
     inkscape:cx="-489.48384"
     inkscape:cy="348.71725"
     inkscape:window-width="1256"
     inkscape:window-height="668"
     inkscape:window-x="0"
     inkscape:window-y="0"
     inkscape:window-maximized="1"
     inkscape:current-layer="layer2"
     inkscape:showpageshadow="0"
     inkscape:deskcolor="#505050" />
  <defs
     id="defs2" />
  <g
     inkscape:groupmode="layer"
     id="layer2"
     inkscape:label="SVG - fond de carte"
     style="display:inline">
    <path
       id="path1005"
       style="fill:none;stroke:#000000;stroke-width:0.40976px;stroke-linecap:butt;stroke-linejoin:miter;stroke-opacity:1"
       d="m 104.67211,58.991282 c 0,0 -0.86177,0.02533 -0.76038,0.405541 0.10138,0.380192 0.38019,0.582964 0.78573,0.380192 0.40554,-0.20277 -0.0254,-0.785733 -0.0254,-0.785733 z m -3.29502,-0.836428 c 0,0 -1.01385,0.354845 -0.76038,0.55762 0.25346,0.202769 0.83642,0.608309 1.03919,0.177422 0.20278,-0.430889 -0.27881,-0.735042 -0.27881,-0.735042 z m -6.69142,0.405541 c 0,0 1.824933,-0.912468 2.255819,-0.405541 0.430886,0.506923 0.405548,0.963159 -0.380197,0.912467 -0.785733,-0.05069 -1.571465,-0.380195 -1.774244,-0.329504 -0.202768,0.05069 -0.101378,-0.177422 -0.101378,-0.177422 z m -5.322734,1.470086 c 0,0 1.343358,-1.672857 1.672854,-1.292664 0.329508,0.380196 1.267319,0.697023 0.912474,1.31801 -0.354847,0.620985 -0.392874,1.21662 -0.950487,0.760389 -0.557615,-0.456237 -1.672855,-0.291484 -1.66018,-0.481579 0.01274,-0.190101 0.02538,-0.304156 0.02538,-0.304156 z m 1.977012,3.447095 c 0,0 0.608316,0.60831 1.241968,0.278809 0.633666,-0.329499 1.26732,-0.304156 1.495438,0.101378 0.228119,0.405546 1.039202,0.506928 0.861784,-0.430882 -0.177441,-0.937816 -0.20278,-1.064546 -1.140591,-1.064546 -0.937811,0 -2.458599,1.115236 -2.458599,1.115236 z m -6.159144,-2.788095 c 0,0 1.08989,0.709698 1.039202,1.064545 -0.05074,0.35485 0.228118,-0.101378 0.633654,0.329505 0.405535,0.430887 1.520775,1.520777 0.836421,1.951664 -0.684343,0.430887 -0.96315,0.557618 -1.875623,-0.304156 -0.912461,-0.861777 -2.053052,-0.101378 -2.053052,-0.20277 0,-0.101379 -1.267307,-0.88712 -0.709692,-1.318007 0.557614,-0.430889 0.506924,-0.481579 0.582964,-0.785737 0.076,-0.304156 1.546126,-0.735044 1.546126,-0.735044 z M 57.122446,85.097965 c 0,0 -0.659006,1.520794 -1.241971,1.571483 -0.582962,0.05064 -0.05069,0.861774 0.633656,0.68434 0.684355,-0.177419 1.394047,-0.912464 1.596821,-0.633651 0.202771,0.278811 1.267315,0.329501 1.039198,-0.278813 -0.228119,-0.608314 -0.582968,-0.608314 -1.013855,-0.633652 -0.430887,-0.0254 -1.013849,-0.709707 -1.013849,-0.709707 z m -7.629238,5.119959 c 0,0 -1.44474,-1.064544 -1.115238,-1.672861 0.3295,-0.608298 -0.278809,-0.3295 -0.836429,-0.861774 -0.557618,-0.532274 -1.191275,-1.698196 -0.557618,-2.661349 0.633658,-0.963169 1.064545,-1.495441 1.08989,-2.053051 0.02538,-0.557626 3.903332,-5.170648 4.638373,-5.094608 0.735045,0.07603 2.838787,-0.126682 3.218983,-0.861788 0.380193,-0.73503 2.458591,-1.419385 3.09225,-1.622156 0.633656,-0.202771 1.292659,-0.532273 1.368698,-0.177419 0.07604,0.354838 -0.20277,1.013856 0.811083,0.988505 1.013851,-0.02541 2.636014,0.633651 2.483935,1.292654 -0.152081,0.659002 -2.002355,1.723548 -1.799586,2.205132 0.20277,0.481585 0.456232,0.0254 0.481579,0.506921 0.02536,0.481584 0.60831,0.202771 1.115237,0.228124 0.506927,0.0254 2.331862,-0.25346 2.737402,0.126684 0.405539,0.38019 1.596819,0.430894 -0.101378,0.836423 -1.698202,0.405542 -1.774241,0.278811 -2.483939,0.735043 -0.709697,0.456232 -2.458592,0.456232 -2.458592,0.760397 0,0.30415 -0.785735,0.836423 0.557619,0.659004 1.343354,-0.177435 2.509284,-1.394048 2.712053,-0.887128 0.202774,0.506937 0.887125,0.861775 1.165932,0.760397 0.278809,-0.101438 0,0.937817 0.481579,0.937817 0.48158,0 0.811084,-0.937817 1.241969,-0.304166 0.430887,0.633665 0.811084,2.534635 1.16593,2.534635 0.354851,0 1.343357,1.115235 1.977014,0.937815 0.633658,-0.177434 1.926316,-0.202771 1.343354,0.760379 -0.582966,0.963168 -0.608315,1.16593 -1.292663,1.444756 -0.684348,0.278798 -0.60831,1.115237 0.354848,1.191272 0.96316,0.07603 2.585323,-0.709702 3.269671,-0.304158 0.684353,0.405535 2.813441,0.304158 3.421754,-0.177421 0.60831,-0.481588 3.041559,-1.394054 3.041559,-2.864138 0,-1.470089 0.329496,-1.444737 -1.495438,-2.002362 -1.82493,-0.55761 -1.774239,-0.659004 -2.230469,-1.318006 -0.456237,-0.659003 -3.447098,-0.937817 -3.168288,-1.47009 0.278809,-0.532272 1.926317,-0.735044 1.596814,-1.343358 -0.329499,-0.608299 -2.433248,-0.405528 -1.951663,-0.9378 0.481578,-0.532274 1.14058,-0.684356 1.774238,-0.735044 0.633657,-0.05064 2.078399,-0.633667 0.836432,-1.267317 -1.241974,-0.633652 -0.811084,-0.912465 0.380192,-1.039195 1.191274,-0.126683 1.571476,-1.013857 1.444736,-1.318007 -0.126725,-0.304165 0.659003,-0.405542 -0.684349,-0.506936 -1.343354,-0.101437 -1.394045,-0.887111 -0.785736,-1.013857 0.608314,-0.126683 1.622164,0.126684 2.179778,-0.25346 0.557626,-0.380191 2.661366,-0.202756 3.852647,-0.608298 1.19128,-0.405544 1.824934,-0.304165 0.304157,-0.912464 -1.520788,-0.608314 -2.20513,-1.622171 -3.193642,-1.520793 -0.988501,0.101437 -0.152079,-1.54612 -1.723544,-1.774237 -1.571469,-0.228114 -1.850279,-0.20277 -2.483936,-0.937811 -0.633658,-0.735044 -1.672861,-1.343354 -1.368703,-1.926321 0.304157,-0.582964 -0.582968,-0.02536 -1.191276,-0.152082 -0.60831,-0.12673 0.481579,-1.064546 -0.228118,-1.064546 -0.709697,0 -2.205125,-0.228113 -3.472441,0.380197 -1.267314,0.60831 -2.4079,1.241968 -4.435603,0.582966 -2.027704,-0.659006 -5.576187,-0.380197 -5.931036,-0.177427 -0.354848,0.202771 -3.371058,2.585323 -3.827294,3.168289 -0.456232,0.582965 -2.154433,1.774241 -3.54848,1.900972 -1.394045,0.126684 -3.396406,3.244327 -4.004715,3.523138 -0.608315,0.278813 -4.207486,2.990867 -4.841145,3.751249 -0.633657,0.760397 -3.142944,3.269679 -2.813439,3.599181 0.329502,0.329501 0.785734,0.608313 0.304153,1.241965 -0.481578,0.633651 -1.115236,2.838784 -0.557618,2.914826 0.557618,0.07604 1.140584,-0.557626 1.951665,0.481584 0.811085,1.039193 4.283528,3.903331 4.765108,3.928665 0.481579,0.0254 1.875625,1.165939 2.559974,0.557623 0.684352,-0.608308 0.861775,-1.115229 0.861775,-1.115229 z M 32.396694,120.22801 c 0,0 1.182888,0.51082 1.917712,0.26887 0.734829,-0.24198 1.24562,-0.018 1.120161,0.60041 -0.12546,0.61829 0.743786,1.89977 -0.02689,2.06107 -0.770671,0.16132 -1.54134,-0.25091 -1.344192,-0.98573 0.197148,-0.73482 -0.48391,-0.53768 -1.478611,-0.68106 -0.994703,-0.1434 -1.156004,-0.97678 -0.851319,-1.20977 0.304682,-0.233 0.663131,-0.0538 0.663131,-0.0538 z m -5.627679,-2.079 c 0,0 -1.335227,-0.77964 -1.012624,-1.22768 0.322608,-0.44807 0.528719,-0.92304 1.478613,-0.94095 0.949894,-0.018 1.156003,0.54664 1.156003,0.54664 0,0 1.245615,-0.4391 1.281461,-0.16131 0.03585,0.2778 0.645213,2.29409 -0.107523,2.21344 -0.752745,-0.0807 -2.123821,-1.05743 -2.312006,-0.8065 -0.188188,0.2509 -0.483913,0.37636 -0.483913,0.37636 z m 27.278114,56.97577 c 0,0 1.218733,0.3226 1.290421,-0.66313 0.07168,-0.98576 1.541337,-0.7886 1.541337,-0.7886 0,0 1.935636,-0.62728 0.89613,-0.91404 -1.039508,-0.28675 -2.509155,-0.51975 -2.222395,-1.05744 0.286762,-0.53768 1.29042,-0.89612 0.788592,-1.14704 -0.50183,-0.25091 -1.308346,-0.3943 -1.541339,0.16131 -0.232994,0.5556 -0.537676,1.48757 -1.182889,1.34419 -0.645213,-0.1434 -1.559261,-0.93198 -1.84602,-0.26885 -0.286762,0.66313 -0.752752,1.57719 0.412215,1.30835 1.164965,-0.26884 1.846024,-0.41222 1.684722,0.30468 -0.161303,0.71691 0.179226,1.72057 0.179226,1.72057 z m 3.208132,2.8676 c 0,0 1.218735,-0.53766 0.949895,-0.96782 -0.268835,-0.43014 -0.268835,-0.75274 0.250916,-0.71689 0.519752,0.0359 1.684717,-0.37638 1.272502,-0.77066 -0.412217,-0.39431 -0.842359,-0.64523 -0.609366,-0.9499 0.232989,-0.30469 -0.806514,-0.3943 -1.075354,-0.0179 -0.268837,0.37638 -0.878204,0.4122 -1.039506,0.4122 -0.161306,0 0.250913,3.01101 0.250913,3.01101 z m -6.595496,2.67047 c 0,0 1.147042,-0.9499 1.45173,-0.69899 0.304679,0.25091 1.577182,-0.14341 1.415877,-0.68105 -0.161303,-0.53768 0.430141,-1.64888 -0.250912,-1.6668 -0.68106,-0.0179 -1.272504,0.018 -1.433806,0.69898 -0.161302,0.68105 -0.12546,0.68105 -0.698977,0.84237 -0.573522,0.16129 -0.806516,0.7348 -0.716906,1.07534 0.08961,0.34053 0.232994,0.43015 0.232994,0.43015 z m 0.05377,4.76739 c 0.179224,-0.0897 0.860283,-1.16496 1.200811,-0.73483 0.340527,0.43015 0.842355,1.27251 1.308345,0.50183 0.465987,-0.77066 1.003661,-0.78857 0.860283,-1.32625 -0.14338,-0.53769 0.05377,-0.93199 0.555598,-1.09329 0.501829,-0.1613 1.792255,-0.55561 1.272498,-0.77067 -0.519751,-0.21507 -2.401619,0.036 -2.527077,0.34055 -0.125462,0.30467 -1.917713,1.48754 -2.204472,1.93561 -0.286762,0.44807 -0.465986,1.14705 -0.465986,1.14705 z m 1.362112,6.54174 c 0,0 1.218735,0.14341 1.433804,-0.48391 0.215067,-0.62731 0.519753,-0.26884 1.00366,-0.41222 0.483911,-0.14341 0.949899,-0.51976 0.465988,-1.07535 -0.48391,-0.55561 -0.860285,-0.50185 -0.57352,-0.96785 0.286758,-0.46595 1.362113,-1.93562 1.093273,-2.11484 -0.268837,-0.17923 -1.039506,-0.77067 -1.2725,-0.10752 -0.232992,0.66313 -0.949893,2.07901 -0.985739,2.52707 -0.03585,0.44806 -0.591445,0.43014 -0.860285,0.57353 -0.268834,0.14341 0.573521,0 0.41222,0.46597 -0.161301,0.466 -0.716901,1.59512 -0.716901,1.59512 z M 47.02149,195.431 c 0,0 1.505493,-0.28675 2.204474,-1.02155 0.698979,-0.73483 0.91405,0.0716 1.111198,0.16129 0.197148,0.0897 1.469646,-0.1434 1.164965,-0.57353 -0.304686,-0.43014 -1.792255,-0.59144 -1.666799,-0.94988 0.12546,-0.35847 -0.412216,-0.28677 -0.663132,0.25091 -0.250917,0.53767 -0.555598,1.43381 -1.25458,1.36211 -0.698978,-0.0716 -0.896126,0.77065 -0.896126,0.77065 z m 3.799577,0.82447 c 0,0 -1.738487,-0.0537 -2.079013,0.50182 -0.340528,0.55559 -0.77067,0.77067 -0.734824,1.18289 0.03585,0.41221 -1.129118,1.43379 -1.129118,1.43379 0,0 -1.792256,1.79227 -1.03951,1.55927 0.752745,-0.23299 1.577184,-0.51974 2.186551,-1.34418 0.609367,-0.82445 1.505493,-1.41588 1.953558,-1.81018 0.44806,-0.39431 1.308345,-0.86028 1.164966,-1.14706 -0.143379,-0.28675 -0.32261,-0.37635 -0.32261,-0.37635 z M 73.242175,211.4 c 0,0 0.770668,0.80653 0.716899,1.5055 -0.05377,0.69897 0.716905,2.4733 1.03951,2.4733 0.322604,0 0.681053,3.19021 0.21507,3.83544 -0.465987,0.64521 -0.268839,1.57718 0.07168,1.68471 0.340531,0.10751 2.096941,-0.018 2.491241,0.59145 0.394291,0.60937 1.111189,-0.0359 1.111189,0.75273 0,0.78861 0.501838,0.60939 0.896129,0.64522 0.394291,0.0359 0.89613,-0.3226 1.899794,0.35846 1.003653,0.68105 2.688377,1.29042 3.333588,1.11119 0.64521,-0.17923 1.469654,1.46966 1.469654,1.46966 0,0 0.394291,-0.35846 0.430141,0.43014 0.03584,0.78859 0.501826,1.68473 1.254572,1.68473 0.752745,0 1.003664,0.57351 1.003664,1.32625 0,0.75275 0.860281,1.32628 0.860281,2.00733 0,0.68106 0.788595,4.33725 0.358454,5.05416 -0.43014,0.71688 -0.967815,0.35844 -0.89613,2.079 0.07167,1.72058 -0.752745,3.58451 -1.039501,3.97881 -0.286768,0.39431 -1.1112,1.03951 -1.397968,2.22239 -0.286757,1.1829 -0.250907,4.37312 -0.107512,4.80326 0.143385,0.43012 -0.394291,2.8676 -0.465977,3.2619 -0.07167,0.3943 -0.322606,2.079 -1.039514,2.00732 -0.716896,-0.0716 -1.218735,-0.89614 -1.433793,-1.1112 -0.21507,-0.21506 -0.537687,0.75275 -0.430152,0 0.107511,-0.75275 0.501838,-1.32627 0.358454,-1.8281 -0.143372,-0.50182 -0.465989,-3.40529 -1.003664,-3.69204 -0.537676,-0.28676 -1.003665,-3.65621 -1.003665,-3.65621 0,0 -0.501826,-1.11119 -0.501826,-0.0716 0,1.0395 -0.430142,2.76007 -0.967817,2.79591 -0.537674,0.036 -1.218735,-0.3226 -1.147037,-1.39795 0.07167,-1.07535 -1.433804,-2.68839 -1.433804,-2.68839 0,0 -2.634617,-3.6562 -3.297752,-3.62035 -0.663137,0.0357 -2.545002,-0.17923 -2.652537,0.12545 -0.107547,0.30467 -0.376373,0.59144 -0.949893,0.44806 -0.573522,-0.14342 -0.197149,0.48391 -0.215072,1.12911 -0.01791,0.64522 -0.48391,2.43748 -0.860283,2.52709 -0.376373,0.0897 -1.129119,1.05743 -1.97148,0.55559 -0.842358,-0.50182 -1.881865,-1.21871 -1.756411,-0.73482 0.125461,0.48392 0.537681,0.57352 -0.01791,0.53767 -0.555597,-0.0359 -0.967816,0.018 -0.949894,0.5556 0.01791,0.53769 0.591444,5.41261 0.35845,5.95029 -0.232989,0.53768 -0.949894,3.6562 -2.114859,4.06842 -1.164967,0.41223 -1.34419,1.55926 -1.308347,1.93564 0.03585,0.37636 1.003664,2.13277 0.645215,2.97514 -0.35845,0.84235 -1.164965,1.97148 -1.8281,1.36211 -0.663133,-0.60936 -0.949896,-1.09327 -0.931974,-1.8281 0.01791,-0.73483 -1.559262,-0.9499 -1.989401,-1.70263 -0.430143,-0.75276 -4.211798,-4.96455 -4.211798,-4.96455 0,0 -3.028911,-3.83543 -4.30141,-3.58452 -1.272499,0.25091 -2.885529,1.27251 -2.455388,-0.036 0.430138,-1.30834 1.953558,-6.90016 2.61669,-7.27656 0.663135,-0.37636 1.164966,-0.23298 1.344191,-1.05741 0.179225,-0.82443 0.430142,-1.55928 0.286763,-2.49122 -0.14338,-0.93199 0.788591,-3.06479 0.322604,-3.33361 -0.465984,-0.26884 -2.795914,-0.60936 -3.620352,-0.0716 -0.824438,0.53768 -2.491234,2.38369 -3.960884,2.24032 -1.469647,-0.14341 -3.584507,0.41223 -2.186552,-0.59143 1.39796,-1.00366 3.190216,-2.24032 3.22606,-4.22974 0.03585,-1.9894 0.232994,-3.63826 -1.039508,-4.46271 -1.2725,-0.82443 -2.491233,-1.21873 -1.451725,-1.86393 1.039506,-0.64523 3.208134,-1.82811 4.211798,-2.81383 1.003662,-0.98575 2.437463,-1.43383 2.903451,-1.61305 0.465988,-0.17922 2.132782,-1.75641 2.634611,-2.02524 0.501834,-0.26883 2.831766,-0.94989 2.222398,-1.29043 -0.609367,-0.34052 -0.967818,-0.44807 -0.143379,-1.14704 0.824438,-0.69898 1.702639,-1.79225 2.545002,-1.81018 0.842356,-0.018 2.025244,-0.35846 2.652534,-0.89612 0.627289,-0.53769 2.312009,-1.73848 2.83176,-1.45173 0.519756,0.28676 0.896129,2.00733 2.114865,2.00733 1.218729,0 2.706303,0.7169 4.068416,-0.17924 1.362114,-0.89612 3.010984,-3.02891 3.602429,-3.06474 0.591444,-0.0359 0.98574,0.0897 0.98574,0.0897 z m -1.613032,-4.08633 c 0,0 -0.57352,0.0716 -0.752745,0.66314 -0.179225,0.59143 -0.412219,1.09327 0.28676,0.84236 0.69898,-0.25093 1.075352,-0.91406 1.164967,-0.60938 0.08961,0.3047 0.107523,0.9499 0.519753,0.71691 0.412219,-0.23301 0.949894,-0.7886 0.35845,-1.07535 -0.591445,-0.28676 -1.577185,-0.53768 -1.577185,-0.53768 z m 120.098947,42.67357 c 0,0 -0.53767,0.39429 -0.68105,0.86029 -0.14342,0.46598 -0.19714,0.21506 -0.57352,0.51973 -0.37637,0.3047 -1.30835,0.55562 -1.00366,0.8603 0.30467,0.30468 0.23299,1.05743 1.09327,0.37639 0.86029,-0.68107 0.62729,-1.09329 0.86029,-1.21874 0.23299,-0.12545 0.96781,-0.25093 0.84236,-0.59146 -0.12545,-0.34052 -0.53769,-0.80651 -0.53769,-0.80651 z m 2.76009,-4.2118 c 0,0 -0.64522,0.60936 -0.57354,1.2725 0.0716,0.66315 -1.14704,1.77433 -1.14704,1.77433 0,0 -0.34053,1.14705 0.44806,0.71691 0.78859,-0.43015 0.32262,-0.75274 0.82446,-0.89614 0.50183,-0.14341 1.29041,0.0359 1.29041,-0.55559 0,-0.59143 0,-0.0538 -0.30468,-0.34052 -0.30469,-0.28677 -0.37638,-0.94991 -0.30469,-1.36213 0.0716,-0.41221 -0.23298,-0.60936 -0.23298,-0.60936 z m -54.71754,-25.18116 c 0,0 1.14705,-0.25092 1.36212,0.018 0.21507,0.26884 0.46599,0.21507 0.68106,-0.0897 0.21508,-0.30468 0.8065,-0.48391 0.66314,-0.0179 -0.14342,0.46599 -0.0716,1.30836 -0.46599,1.07536 -0.3943,-0.23299 -0.34054,0.39429 0.1613,0.53768 0.50183,0.1434 1.93563,-0.44807 2.27617,-0.0359 0.34052,0.41223 0.1613,1.8998 0.60936,1.8998 0.44806,0 0.80651,0.50182 1.43381,0.0357 0.62727,-0.466 3.56658,-0.26884 3.92504,0.32261 0.35844,0.59142 1.50549,2.29408 2.24032,2.15069 0.73481,-0.14342 1.81015,1.32627 2.43746,0.35845 0.62729,-0.96781 3.54865,-0.71691 3.85333,-0.46598 0.30469,0.25092 1.20082,1.21874 0.30469,1.09328 -0.89613,-0.12545 -1.8281,-1.00366 -1.64887,-0.25091 0.17924,0.75273 1.2725,0.82442 1.2725,0.82442 0,0 1.38004,0.64522 1.41588,1.09327 0.0357,0.44807 1.00368,1.61304 1.61304,1.43381 0.60935,-0.17921 0.14341,0.26883 0.87819,0.28678 0.73483,0.0179 1.20082,0.17921 0.44807,0.57351 -0.75275,0.39429 -1.68472,0.018 -1.98939,0.39429 -0.30471,0.37638 -0.69898,0.44806 -1.48758,-0.018 -0.78861,-0.466 -1.3442,-1.21874 -1.63095,-1.82812 -0.28676,-0.60935 -1.8998,-0.69898 -1.68473,-0.12543 0.21507,0.57351 0.75274,1.70265 0.32262,1.77433 -0.43014,0.0716 -1.27252,0.0716 -1.36212,-0.34053 -0.0897,-0.41222 -0.50182,-1.09327 -1.27251,-1.05744 -0.77066,0.0359 -1.12911,-0.0897 -1.23664,-0.9499 -0.10752,-0.86027 -1.59511,-2.02524 -2.43748,-1.9177 -0.84234,0.10751 -0.78859,0.5556 -1.57718,0.32261 -0.78859,-0.233 -0.60937,-1.12913 -1.36212,-0.93198 -0.75274,0.19715 -2.99306,-0.16129 -3.35151,-0.0897 -0.35845,0.0716 -1.2725,-1.27251 -1.9177,-1.23665 -0.64522,0.036 -1.30837,-0.25092 -1.14706,-0.82444 0.1613,-0.57353 -0.3943,-0.9678 -0.62727,-1.25457 -0.23302,-0.28678 0.16129,-0.68108 0.44805,-0.86029 0.28678,-0.17922 0.16131,-0.59145 -0.0537,-0.75274 -0.21509,-0.16132 -1.32627,-0.43016 -1.29043,-0.80652 0.0359,-0.37638 0.19714,-0.34053 0.19714,-0.34053 z m -31.67678,-70.17887 c 0,0 4.48629,0.63367 4.84115,1.21663 0.35486,0.58296 2.53462,0.86177 3.295,0.76038 0.76041,-0.1015 4.18215,1.11525 4.53701,1.59681 0.35485,0.48159 4.18214,2.10374 4.18214,2.10374 0,0 3.39638,0.43091 4.35956,0.35486 0.96315,-0.076 5.04391,0.91247 5.24668,0.98851 0.20278,0.076 5.42412,0.76039 6.15914,1.0899 0.73505,0.32949 5.47481,1.85027 5.70292,2.07838 0.22813,0.22813 3.82731,3.1176 4.00473,3.49778 0.17741,0.38021 2.61065,2.61068 4.00471,2.8895 1.39404,0.2788 3.52313,0.95048 6.52666,0.76038 3.00355,-0.19009 3.66255,-0.30416 4.82849,-0.53227 1.16592,-0.22811 5.82965,-0.30417 6.10846,-0.076 0.2788,0.2281 5.42411,1.72352 5.67756,1.87561 0.25347,0.15207 3.09226,1.44474 3.49779,1.7489 0.40555,0.30415 2.94019,1.85028 3.11761,2.45859 0.17742,0.60831 3.26966,2.81343 3.47244,3.04156 0.20276,0.22811 2.0277,2.43324 1.77424,4.10609 -0.25347,1.67287 -0.83644,2.66137 0.91246,3.82731 1.7489,1.16591 3.26967,3.04155 3.8273,2.91481 0.55762,-0.12668 2.3572,-0.81108 2.25581,-0.3802 -0.10149,0.4309 -1.34336,1.69821 -1.36869,2.5093 -0.0254,0.81107 1.19127,4.18212 1.19127,4.18212 0,0 1.4701,2.96553 2.15443,3.37107 0.68437,0.40554 3.1176,3.54849 3.1176,3.54849 0,0 2.17978,2.7374 2.4586,4.30887 0.27881,1.57146 0.68435,4.51164 -0.40555,4.58768 -1.08988,0.076 -1.16591,1.318 -0.70969,1.67284 0.45623,0.35485 1.67284,4.1061 1.59682,5.37342 -0.076,1.26732 0.53226,7.29975 0.88712,7.5532 0.35484,0.25346 1.47009,2.33186 0.15207,3.06691 -1.318,0.73504 -1.59681,7.52784 -2.00235,7.78131 -0.40556,0.25346 -0.88713,2.55998 -1.57147,2.35722 -0.68436,-0.20278 -0.45624,2.58531 -0.45624,2.58531 0,0 -0.9885,0.35486 -1.24195,0.96317 -0.25348,0.60831 0.32948,2.94016 -0.83646,3.21896 -1.16591,0.27882 -1.90095,1.26732 -2.33186,1.7996 -0.43088,0.53226 -1.59679,1.03918 -1.52077,0.55763 0.076,-0.48159 -0.40554,-1.19129 -0.2788,-1.24197 0.12669,-0.0507 1.0392,0.20275 0.73503,-0.53228 -0.30415,-0.73504 0.15209,-0.83643 0.58298,-0.96316 0.43088,-0.12669 0.35484,-0.27882 0.48156,-0.86178 0.12669,-0.58296 0.43091,-0.30415 0.83645,-0.96315 0.40554,-0.65901 -0.38019,-0.70971 0.17741,-1.34336 0.55763,-0.63366 1.318,-2.53464 1.0899,-3.42175 -0.22811,-0.88712 -2.02771,-2.38255 -1.14059,-3.95402 0.88711,-1.57148 0.91248,-3.04157 0.93783,-3.57384 0.0254,-0.53226 0.32949,-0.96315 0.58296,-1.62216 0.25346,-0.659 -0.63368,-2.99086 -0.20277,-3.70055 0.43088,-0.7097 1.49541,-1.06454 1.06455,-3.09225 -0.4309,-2.0277 -0.4309,-3.52314 -0.20279,-4.00472 0.22812,-0.4816 0.45624,-1.21663 -0.0506,-1.82493 -0.50694,-0.6083 -1.47008,-1.85028 -1.49544,-2.68671 -0.0254,-0.83642 -1.72354,-0.86179 -2.00235,-1.97701 -0.27881,-1.11525 -0.60832,-3.67521 -1.59682,-4.08076 -0.9885,-0.40553 -1.31801,-1.62217 -1.47008,-0.73504 -0.15208,0.88712 0.25346,2.25581 -0.25345,2.30651 -0.50694,0.0507 -1.52079,0.86178 -1.901,-0.20277 -0.38018,-1.06455 -2.07839,-1.21662 -2.07839,-1.21662 0,0 -1.41939,-0.40554 -1.54611,-1.49544 -0.1267,-1.0899 0,-1.26732 -1.14061,-1.85027 -1.14056,-0.58297 -1.29264,-2.33187 -1.29264,-2.33187 0,0 -2.96552,0.1015 -3.29502,-0.45622 -0.3295,-0.55763 -0.15209,0.78573 -0.58298,0.83643 -0.43087,0.0507 -2.45858,-0.68435 -1.85026,-0.98852 0.6083,-0.30415 1.79958,-0.40554 0.81107,-1.11524 -0.9885,-0.70969 -2.28116,-0.58296 -2.71206,-0.25346 -0.43088,0.32951 -1.01385,1.49542 -2.86413,1.49542 -1.85028,0 -5.11994,0.30418 -6.86884,-0.78573 -1.74889,-1.08988 -3.57383,-2.66135 -3.62452,-3.52314 -0.0507,-0.86175 -2.96553,-1.39404 -3.09225,-1.90096 -0.12668,-0.50693 0.45624,-2.07839 -0.20276,-2.10374 -0.65902,-0.0254 -2.55999,0.27881 -3.04156,-0.22813 -0.48159,-0.50691 -0.50693,-2.83879 -0.50693,-2.83879 0,0 -2.45861,-0.45622 -2.76276,-0.17741 -0.30416,0.27882 -2.07839,0.43088 -1.90096,0.076 0.17742,-0.35484 -0.78575,-1.59681 -1.11523,-1.26731 -0.3295,0.32951 -0.70971,0.076 -1.62219,0.32951 -0.91245,0.25346 -2.66135,-0.88713 -3.3964,-0.58297 -0.73502,0.30415 -1.85028,1.31801 -2.71205,1.29266 -0.86177,-0.0254 -4.43561,-0.86177 -6.33657,-1.57147 -1.90097,-0.70969 -6.5647,-0.70969 -6.5647,-0.70969 0,0 -0.65901,0.63365 -0.73504,0.25346 -0.076,-0.38019 -0.30415,-0.81108 -0.73505,-0.38019 -0.43087,0.43088 -2.07839,2.23047 -2.17978,3.42174 -0.1015,1.19128 1.21664,3.57383 -0.45624,3.85265 -1.67284,0.2788 -4.15677,0.20277 -5.34806,-0.7604 -1.19127,-0.96315 -2.96551,0.40554 -2.96551,0.40554 0,0 -2.35722,1.92632 -4.48628,1.90099 -2.1291,-0.0254 -4.5877,-0.43091 -5.77897,-2.35721 -1.19128,-1.92633 -2.02771,-3.54848 -3.09224,-3.39642 -1.06456,0.15208 -3.52315,0.32951 -4.68908,-0.58296 -1.165926,-0.91246 -4.714403,0.0507 -5.449447,-0.55762 -0.735055,-0.60831 -0.988512,-1.31801 -0.506937,-1.47009 0.481587,-0.15208 1.470086,-1.21662 1.875634,-1.19126 0.405535,0.0254 0.937812,-1.62217 1.571465,-1.62217 0.633666,0 2.990865,0 3.421765,-0.88712 0.43087,-0.88712 3.04155,-1.82494 3.64986,-2.53463 0.6083,-0.70969 0.93782,-1.49544 2.76275,-1.54614 1.82492,-0.0507 4.1061,-0.076 4.51164,-0.0254 0.40553,0.0507 2.48392,-0.12668 3.09225,0.15208 0.6083,0.27882 1.79959,1.54613 2.83877,1.21663 1.0392,-0.3295 1.31801,-0.12668 -0.15207,-0.86177 -1.47008,-0.73505 -4.56234,-1.16593 -4.23284,-1.44474 0.32951,-0.27883 1.44476,0.20277 2.1291,-0.30417 0.68434,-0.50692 0.58296,-0.659 1.95166,-0.30414 1.36871,0.35486 8.89654,1.36869 9.6823,0.76039 0.78572,-0.60832 1.41939,-0.65901 2.50927,-0.55763 1.0899,0.1015 3.4978,0.45624 4.51164,-0.60831 1.01386,-1.06455 1.11524,-0.43088 0.38019,-1.62215 -0.73504,-1.19128 -1.85025,-2.35722 -2.71205,-2.50928 -0.86177,-0.1521 0.96318,-2.30654 -0.63366,-3.04158 -1.59681,-0.73503 -2.4079,0.0507 -3.21897,-0.63365 -0.81108,-0.68436 -2.17978,-2.58532 -2.96551,-2.50929 -0.78575,0.076 -2.15444,-0.20275 -0.93782,-0.38018 1.21661,-0.17743 1.16593,-0.30416 1.36869,-0.81108 0.20278,-0.50693 1.06456,0.0252 1.57147,0 0.50693,-0.0254 1.77424,-0.20278 0.96317,-0.91247 -0.81108,-0.7097 -1.16594,-0.12667 -1.85028,-0.73504 -0.68436,-0.60832 -2.99086,-2.99087 -3.32036,-2.05306 -0.32951,0.93781 -0.0506,3.04156 -1.31801,3.0162 -1.26731,-0.0254 -3.26968,-0.2281 -3.64986,-0.91246 -0.38021,-0.68435 -0.91248,0.1015 -1.39405,-0.70969 -0.48159,-0.81109 -2.23049,-2.94017 -3.11761,-2.96552 -0.88711,-0.0254 -0.86177,-1.08989 0.30417,-1.08989 1.16592,0 4.46094,1.36869 5.27202,0.98851 0.81108,-0.38019 2.00235,-0.17743 0.58297,-1.31801 -1.41938,-1.14059 -2.15443,-0.78573 -2.63602,-1.41939 -0.48158,-0.63366 -1.39404,-1.41939 -1.85027,-2.35722 -0.45623,-0.9378 -2.53464,-2.28116 -3.52314,-2.43324 -0.98851,-0.15207 -3.42175,-1.01385 -3.62452,-1.39404 -0.20277,-0.38021 -0.43089,-0.68436 -0.43089,-0.68436 z M 84.648528,123.21883 c 0,0 4.714408,1.977 5.702919,1.77423 0.988501,-0.20277 3.244333,-0.27881 3.472439,0.0507 0.22813,0.32952 0.887122,0.91247 0.20278,0.93781 -0.684356,0.0254 -0.557627,0 -0.02538,0.45625 0.532276,0.45621 0.177417,1.21661 0.456224,1.29266 0.278819,0.076 0.785745,0.70969 0.101379,0.83641 -0.684343,0.12669 -1.520777,0.0254 -2.002352,-0.63365 -0.481574,-0.65899 -1.748894,-1.49542 -2.788094,-1.54612 -1.039202,-0.0506 -1.571466,-0.91246 -1.571466,-0.91246 0,0 -4.055414,-1.54615 -3.801945,-1.7996 0.253456,-0.25345 0.253456,-0.45623 0.253456,-0.45623 z m -3.649867,-4.03007 c 0,0 1.08989,0.12668 1.06454,0.55763 -0.02538,0.43088 0.633665,0.6083 1.165929,0.50691 0.532276,-0.10149 1.723556,-0.7604 0.430886,-1.01385 -1.292658,-0.25345 -2.205118,-1.19128 -2.534627,-0.93782 -0.329495,0.25348 -0.126728,0.88713 -0.126728,0.88713 z m 5.550841,1.4194 c 0,0 1.571476,0 1.622166,-0.32952 0.05063,-0.3295 1.08989,0 1.546126,0.076 0.456237,0.076 1.520776,-0.12667 1.292658,0.22813 -0.228118,0.35485 0.278807,0.93782 0.709693,1.08988 0.430898,0.15209 1.318007,0.86177 -0.202768,0.73505 -1.520776,-0.12668 -1.470087,-0.7097 -1.951661,-0.5576 -0.481588,0.15207 -0.988513,0.076 -1.36871,-0.25348 -0.380186,-0.3295 -0.177417,-0.81107 -0.836422,-0.81107 -0.659003,0 -0.811082,-0.17743 -0.811082,-0.17743 z m 105.592708,33.30503 c 0,0 0.96314,0.35486 0.8871,0.70971 -0.076,0.35483 0.40556,0.35483 0.58297,-0.15208 0.17743,-0.50693 0.3295,-0.88714 0.58298,-0.60831 0.25345,0.2788 0.58297,0.88712 1.14059,1.03918 0.5576,0.15209 0.98849,1.34336 1.49542,1.49545 0.50691,0.15208 1.2166,0.38019 1.08988,1.01384 -0.12667,0.63367 -0.50693,1.31802 -0.1015,1.7489 0.40555,0.43089 0.83643,1.34336 1.31802,1.41941 0.48157,0.076 1.6475,0.81108 1.49542,1.31799 -0.15209,0.50692 -0.17742,1.72356 -1.19129,1.21662 -1.01383,-0.50693 -0.9885,-0.76038 -0.9885,-1.19127 0,-0.43088 -1.16593,-0.2788 -1.16593,-0.2788 0,0 0.78574,-0.65901 0.22814,-0.96316 -0.55762,-0.30416 -2.30653,-0.17743 -2.25583,-0.83644 0.0507,-0.659 0.96316,-1.39404 0.45623,-1.85027 -0.50693,-0.45624 -1.24197,-0.88713 -1.95167,-0.25346 -0.70969,0.63364 -1.39405,0.86177 -1.44474,0.15208 -0.0506,-0.70969 -0.076,-0.9378 0.35486,-1.14058 0.43088,-0.20276 0.73505,-0.78574 0.38019,-1.16593 -0.35485,-0.38019 -1.67286,-0.98851 -1.54613,-1.16593 0.12668,-0.17743 0.63366,-0.50693 0.63366,-0.50693 z m -10.73748,-4.57894 c 0,0 -0.35847,-1.18288 0.43013,-1.0395 0.7886,0.1434 1.46964,1.46962 1.93562,1.39794 0.466,-0.0716 2.61671,0.78859 3.44114,0.60937 0.82444,-0.17922 3.51281,1.57717 3.11853,1.89978 -0.3943,0.32262 -0.43015,1.43381 -2.32994,0.68106 -1.89977,-0.75274 -4.01464,-1.21873 -4.30141,-0.93198 -0.28675,0.28678 0.25093,2.04318 -0.50183,1.68473 -0.75274,-0.35844 -3.29774,-1.43381 -4.01466,-1.32627 -0.71691,0.10751 -1.79224,0.17922 -2.2224,-0.39429 -0.43012,-0.57353 -1.00365,0.2509 -1.00365,0.2509 0,0 -1.39796,0.10751 -1.3621,-0.50182 0.0359,-0.60936 0.10751,-1.11119 1.00364,-1.0395 0.89612,0.0716 2.04317,0.68106 2.93931,0.57351 0.89613,-0.10751 1.82809,-1.0395 2.25824,-0.7169 0.43015,0.32259 1.43381,0.86028 1.64888,0.35845 0.21507,-0.50183 -1.0395,-1.50548 -1.0395,-1.50548 z m -16.48874,-23.7653 c 0,0 1.21873,-0.19716 1.32625,0.0179 0.10752,0.21507 0.80652,0.25092 0.51976,0.50183 -0.28677,0.25092 0.37638,0.68107 0.37638,0.80652 0,0.12545 0.0897,1.07536 -0.32262,0.73481 -0.41221,-0.34051 -0.7169,-0.82442 -1.07534,-0.46598 -0.35844,0.35847 -0.30469,-0.0359 -0.37639,-0.46599 -0.0716,-0.43013 -1.50548,0.26887 -1.05742,-0.17921 0.44806,-0.44807 0.60938,-0.94989 0.60938,-0.94989 z m 37.70903,8.7462 c 0,0 -1.03952,-0.28677 -0.68107,-1.25457 0.35845,-0.96782 -0.64521,-1.36212 -0.93198,-1.32629 -0.28675,0.036 -0.60937,-0.60935 -0.32259,-1.18288 0.28675,-0.57351 0.21507,-0.89612 -0.3943,-1.07536 -0.60937,-0.17922 -3.26191,0 -3.40529,-0.1434 -0.14341,-0.14341 -0.39429,-0.82443 0.3943,-0.89613 0.78858,-0.0716 2.83176,-0.46599 3.51281,-0.10751 0.68107,0.35844 1.25459,1.61301 1.25459,1.61301 0,0 0.21507,1.32629 0.57353,1.32629 0.35843,0 0.75273,1.50549 0.75273,1.82808 0,0.3226 0.39429,0.89614 -0.0716,1.03951 -0.466,0.14341 -0.68107,0.17923 -0.68107,0.17923 z m 3.87125,-1.57719 c 0,0 0.78861,-0.43013 1.07537,-0.14341 0.28675,0.28676 0.93195,0.17923 1.14703,-0.14341 0.21507,-0.3226 0.93198,-0.82443 0.82445,-0.28675 -0.10751,0.53767 -0.60938,1.61302 -1.25459,1.86393 -0.6452,0.25092 -1.8281,-0.25091 -1.93563,0.14341 -0.10751,0.3943 0.14341,-1.43379 0.14341,-1.43379 z m -3.19021,-5.69937 c 0,0 0.43014,0.1434 1.32628,-0.0716 0.89612,-0.21508 1.29042,0.75275 1.29042,0.75275 0,0 0.46598,1.64887 -0.036,1.61302 -0.50183,-0.036 -0.82443,-0.93198 -1.36211,-0.60938 -0.53766,0.32262 -1.21873,-1.68472 -1.21873,-1.68472 z m -7.63501,-5.34092 c 0,0 1.00367,-1.29042 1.03951,-0.86028 0.0359,0.43015 0.0359,1.18289 0.39431,1.18289 0.35845,0 1.14704,0.6452 0.21507,0.89612 -0.93198,0.25094 -2.545,0.32262 -2.545,-0.25092 0,-0.57351 -0.0716,-0.89611 0.32261,-0.96781 0.39429,-0.0716 0.5735,0 0.5735,0 z m 6.48797,-3.97881 c 0,0 1.29042,0.35846 2.00733,-0.25092 0.7169,-0.60935 1.07534,-0.96781 2.00731,-0.6452 0.93199,0.32259 1.43382,0.89612 2.04318,0.82444 0.60937,-0.0716 0.14341,0.96782 0.14341,0.96782 0,0 0.89613,0.0359 0.68106,0.78859 -0.21507,0.75276 -0.57352,3.33361 -1.43382,3.54865 -0.86026,0.2151 -1.75641,-0.68104 -1.613,-1.25457 0.1434,-0.57352 -1.00366,0.0716 -1.00366,0.0716 0,0 -1.29043,0.28675 -1.3263,-0.50183 -0.0359,-0.78859 0.57354,-1.39797 0,-1.82809 -0.5735,-0.43016 -2.32991,-0.64522 -2.04316,-1.21875 0.28677,-0.57353 0.53768,-0.50182 0.53768,-0.50182 z m 4.83908,-5.73522 c 0,0 0.68106,-0.60936 1.50549,-0.0359 0.82445,0.57353 1.54136,1.75641 1.21874,1.79227 -0.32259,0.0359 -0.32259,-0.60936 -0.68105,-0.28675 -0.35845,0.3226 -1.57719,-1.21876 -1.93563,-1.03952 -0.35846,0.17923 -0.10751,-0.43015 -0.10751,-0.43015 z m -9.28386,-2.72422 c 0,0 0.28675,-1.25458 0.96782,-1.18288 0.68104,0.0717 1.61302,0.35844 1.64885,0.68105 0.036,0.32261 0.28679,1.57718 -0.39428,1.21874 -0.68105,-0.35846 -0.7886,-0.71691 -1.32628,-0.53768 -0.53768,0.17922 -0.89611,-0.17923 -0.89611,-0.17923 z m 1.36211,-4.80324 c 0,0 0.1075,0.68105 -0.466,0.7169 -0.5735,0.0359 -0.43013,0.35844 0.25092,0.64522 0.68106,0.28675 1.46964,0.10747 1.8998,0.3943 0.43013,0.28675 1.72056,1.7564 2.079,1.54133 0.35847,-0.21508 0.43015,-0.50182 0.50185,-1.0395 0.0716,-0.53769 0.17921,-0.71691 0.43012,-0.75275 0.25093,-0.0359 -1.29041,-1.4338 -1.21873,-1.64889 0.0716,-0.21507 0.14342,0.46599 -0.89611,0.5377 -1.0395,0.0717 -2.58085,-0.39431 -2.58085,-0.39431 z m -0.32261,-45.612874 c 0,0 1.34418,-0.50183 1.46966,-0.250913 0.12543,0.250913 2.63462,0.03585 2.63462,0.03585 0,0 1.14702,0.215067 1.41586,-0.519756 0.26883,-0.734824 0.89613,-1.397959 1.16496,-1.433801 0.26884,-0.03585 0.53768,0.376373 0.16132,0.985741 -0.37639,0.609362 -1.07536,1.218729 -0.91406,1.415877 0.16131,0.197149 0.17923,0.179225 0.68106,0.07168 0.50184,-0.107547 0.84236,-0.501835 1.30835,-0.340527 0.46597,0.161302 1.39795,0.12546 1.09326,0.30468 -0.30468,0.179225 -0.91404,0.107547 -1.07534,0.465988 -0.16131,0.358451 -0.75275,1.290422 -1.29042,1.182889 -0.53768,-0.107536 -1.11121,-0.555602 -1.16497,-0.08961 -0.0538,0.465989 -0.018,1.093274 0.48391,1.039509 0.50182,-0.05377 0.64521,0.878202 0.64521,0.878202 0,0 -0.14342,0 -0.6273,-0.07168 -0.48391,-0.07168 -0.32261,0.394293 -0.3943,0.537673 -0.0716,0.14338 -0.2509,0.41222 -0.50181,0.07168 -0.25093,-0.340529 -0.39431,-0.967817 -0.8603,-0.806511 -0.46598,0.161302 -0.59143,0.842355 -0.80651,0.304681 -0.21506,-0.537675 -1.25456,-1.75641 -1.09326,-2.079013 0.1613,-0.322609 -0.0716,-0.573521 -0.50185,-0.627291 -0.43013,-0.05377 -1.07534,-0.215072 -1.09327,-0.519752 -0.0179,-0.304687 -0.73482,-0.555602 -0.73482,-0.555602 z m -82.64085,15.413382 c 0,0 1.32628,0.465989 1.55927,0.08967 0.23299,-0.376365 0.46598,-0.322609 0.37637,0.57353 -0.0897,0.896124 -0.0179,0.914042 0.44806,1.039503 0.46599,0.125445 0.69898,0.215069 0.41221,0.51976 -0.28675,0.304676 0.25093,0.806516 0.57353,0.931961 0.32259,0.125446 -0.0897,0.59145 0.37638,0.609367 0.46599,0.01797 1.2725,-0.197148 1.20081,0.125444 -0.0716,0.322611 -0.17923,0.734829 -0.86029,0.84237 -0.68106,0.107476 -1.0395,0.01797 -1.39794,-0.358461 -0.35847,-0.376366 -1.45174,-0.448055 -1.45174,-0.448055 0,0 0.32261,-0.681056 0.10751,-1.003666 -0.21507,-0.322611 -0.48391,-0.860272 -0.98575,-1.039504 -0.50182,-0.179231 -0.35845,-1.881873 -0.35845,-1.881873 z m 11.47043,-47.297583 c 0,0 0.84237,-0.448065 0.84237,0.01791 0,0.465985 -0.89613,0.573522 0.018,0.878204 0.91407,0.304681 7.11526,1.577183 7.5454,1.899788 0.43013,0.322608 0.64521,1.290426 1.50549,1.792256 0.86029,0.501827 2.47331,1.75641 4.6957,1.397957 2.22241,-0.358449 2.54501,-0.358449 2.36579,-0.931969 -0.17924,-0.573523 -0.50184,-0.645215 1.07533,-1.218736 1.57721,-0.57352 2.18657,-0.609366 2.65255,-0.143379 0.46598,0.465985 0.53767,0.788592 1.89979,1.111196 1.3621,0.322606 2.50916,0.931974 3.33359,0.107523 0.82443,-0.824433 1.21874,-2.114859 2.47332,-2.509155 1.25457,-0.394297 2.68837,-0.430143 1.72056,-0.824439 -0.96782,-0.394292 -1.39797,-0.824433 -0.60936,-0.931971 0.78858,-0.107523 1.0395,0.465987 1.46965,0.465987 0.43014,0 0.64521,-0.430139 1.25457,0.394297 0.60936,0.824438 1.61302,1.720565 1.97148,1.469647 0.35845,-0.250913 0.17922,-0.824434 1.00366,-0.645209 0.82444,0.179225 2.65255,1.147042 4.19387,0.86028 1.54135,-0.286759 2.58085,-0.824438 1.86394,-1.433801 -0.71689,-0.609368 -1.21871,-0.716905 -0.93195,-1.075353 0.28676,-0.358452 0.86026,-0.645216 0.43012,-1.075353 -0.43012,-0.430143 -1.72056,-1.792253 -1.18286,-1.684722 0.53766,0.107548 1.25456,0.716905 1.25456,0.716905 0,0 -0.0359,-0.179225 0.25092,-0.250916 0.28676,-0.07168 2.36576,0.824437 3.36943,1.362113 1.00367,0.537676 7.95762,3.763736 7.95762,3.763736 0,0 8.24436,2.544996 8.53112,2.867605 0.28676,0.322605 2.6167,1.182888 2.40162,2.043167 -0.21507,0.860285 -0.50183,1.54134 -1.89979,1.254581 -1.39796,-0.286762 -2.61668,-0.752746 -2.61668,-0.03585 0,0.716901 1.75641,2.867606 1.75641,2.867606 0,0 3.6562,3.118521 4.12216,3.548664 0.46599,0.430143 1.29044,2.150705 1.79228,2.079013 0.50183,-0.07168 1.29042,-0.286757 1.39794,0.573524 0.10751,0.860283 -0.0357,1.397957 1.2546,1.935633 1.29042,0.537679 2.11485,0.645212 2.50914,1.111201 0.39429,0.465982 0.57353,1.147042 1.89979,1.326267 1.32627,0.179224 2.32994,0.07168 2.22239,0.609367 -0.1075,0.537675 -0.86027,1.039505 -0.64519,1.326268 0.21507,0.286759 -1.97148,0.250915 -2.6167,0.465983 -0.6452,0.21507 -3.36943,1.075354 -3.94297,0.89613 -0.57352,-0.179225 -1.82808,-1.362113 -2.50916,-0.752745 -0.68104,0.609365 -1.54133,0.824433 -2.11485,0.215068 -0.57352,-0.609365 -1.93563,-1.039507 -2.54501,-0.931974 -0.60936,0.107547 -6.73886,-2.760068 -7.41992,-2.509157 -0.68106,0.250918 -0.14342,1.03951 -0.466,1.03951 -0.32259,0 -2.04316,0.573521 -1.46964,1.003664 0.57352,0.430141 1.46964,1.039504 2.2224,1.075349 0.75274,0.03585 1.75641,1.003664 1.97147,1.182889 0.21507,0.179225 1.50549,0.752746 2.18656,0.286763 0.68106,-0.465988 1.39796,0.107524 1.39796,0.788592 0,0.681054 0.75275,2.437464 0.0716,2.688381 -0.68105,0.250913 -2.32992,0.35845 -3.08267,-0.03585 -0.75275,-0.394297 -2.07903,0.250915 -2.40163,0.609366 -0.3226,0.358451 -1.14703,-0.107547 -1.43381,0.537675 -0.28675,0.645214 -0.43014,2.365776 0.53768,2.831761 0.96783,0.465987 2.2224,1.111199 2.50917,1.505497 0.28675,0.394296 1.54134,0.645207 1.68471,0.430136 0.14342,-0.215066 0.50183,1.003664 1.29044,1.505498 0.78858,0.501829 4.65985,3.333593 5.48428,3.441128 0.82443,0.107523 2.58084,0.896124 2.76008,1.577182 0.17922,0.681056 0.39431,1.433806 1.46964,1.756416 1.07535,0.322595 2.50915,0.788583 2.76008,1.397951 0.25092,0.609368 1.32626,1.64887 1.97148,1.505492 0.64521,-0.14341 1.07536,0.143409 0.71689,0.896125 -0.35844,0.752745 0.71691,0.716908 0.14341,1.290424 -0.57352,0.57353 -1.72057,0.465988 -2.43747,0 -0.71691,-0.465989 -3.40529,-1.147031 -3.76374,-0.716894 -0.35846,0.430135 -1.54133,-1.326277 -2.25824,-1.290424 -0.7169,0.03593 -3.08268,0.179216 -2.79593,0.645204 0.28677,0.465988 3.19023,1.720576 2.68839,2.186549 -0.50183,0.465988 -0.46598,0.430152 -2.04316,0.286772 -1.57718,-0.143409 -2.68839,-0.03593 -1.68473,0.501827 1.00367,0.537678 2.58087,0.931976 2.76009,1.469654 0.17921,0.537663 2.36576,1.613019 2.11485,2.079008 -0.25091,0.465988 0.32259,0.250919 -1.57719,-0.03593 -1.89977,-0.286757 -3.65619,-1.182882 -3.83541,-0.752745 -0.17923,0.430136 -0.0357,0.788597 1.00366,1.039502 1.0395,0.250921 2.61669,1.254588 1.86394,1.397965 -0.75275,0.14341 -1.61303,0.14341 -3.11853,-0.215067 -1.50548,-0.358447 -3.36944,-0.57353 -4.51647,-1.039518 -1.14705,-0.46599 -4.0505,-0.430137 -3.69205,0.03593 0.35845,0.465988 2.68837,2.186564 2.68837,2.186564 0,0 -1.00364,-0.107475 -1.82808,-0.179231 -0.82445,-0.07171 -2.72422,-0.824435 -3.65621,-0.609367 -0.93197,0.215067 -0.10751,0.501825 -0.64521,0.967814 -0.53767,0.465988 -0.93197,0.501825 -1.50549,0.107476 -0.57353,-0.394301 -5.30508,-0.322611 -5.44847,0.0717 -0.1434,0.3943 -2.8676,-1.541329 -2.8676,-1.541329 0,0 -3.11851,-1.326277 -4.37309,-0.82445 -1.25458,0.501841 -2.079,1.039518 -1.14706,2.29409 0.93198,1.254586 4.08635,4.014653 5.66353,4.3731 1.5772,0.358463 3.69207,0.645217 3.97882,1.290425 0.28676,0.645218 0,1.147041 1.00366,1.218734 1.00366,0.07173 2.50916,0.824431 2.79591,1.254571 0.28677,0.430148 1.14705,0.03595 1.14705,0.573524 0,0.537679 0.46598,2.616688 1.03951,3.154361 0.57352,0.537683 1.25457,1.326274 0.89613,2.40163 -0.35846,1.075344 0.68104,1.541334 0.46599,2.114864 -0.21508,0.57352 -1.1829,1.00364 -1.07536,1.64886 0.10751,0.64521 -0.10751,3.44112 0.68106,4.26557 0.78858,0.82443 2.04316,1.32627 2.11485,2.11485 0.0716,0.7886 1.18289,4.40897 0.82444,5.05417 -0.35845,0.64522 -0.93197,2.83178 -2.72423,2.545 -1.79224,-0.28675 -2.18655,0.14342 -2.50917,0.64523 -0.3226,0.50182 -1.21872,0.1075 -1.68471,0.50182 -0.46597,0.39429 -0.39429,1.00367 -1.5055,0.46598 -1.11119,-0.53768 -2.58084,-1.4338 -3.29774,-1.21873 -0.71691,0.21507 -1.79224,1.2546 -4.33725,0.25093 -2.54501,-1.00368 -4.19387,0.50182 -4.19387,0.50182 0,0 -5.26924,-0.0359 -5.9503,0.43014 -0.68105,0.46598 -2.68836,0.86028 -1.7564,1.46964 0.93198,0.60939 2.72424,2.90347 3.79958,3.11854 1.07535,0.21507 1.64889,0.7886 2.72423,0.7886 1.07534,0 2.68839,1.79224 2.68839,1.79224 0,0 -1.79225,-0.89611 -2.40162,-0.60935 -0.60936,0.28674 -1.11122,1.36211 -2.25826,1.36211 -1.14703,0 -7.24071,-1.1112 -7.92176,-0.68106 -0.68105,0.43013 -4.19386,0.82443 -5.55598,0.64519 -1.3621,-0.1792 -3.29775,0.0716 -3.79958,-0.32259 -0.50184,-0.3943 -1.4338,-1.07534 -2.2224,-0.64522 -0.78858,0.43015 -2.43746,1.46966 -3.51281,1.21874 -1.07536,-0.25093 -3.44114,-0.96782 -4.22972,-0.39429 -0.7886,0.57353 -4.58818,2.04316 -4.94663,2.65253 -0.35845,0.60936 -4.12217,4.22972 -5.05414,4.33726 -0.93199,0.10751 -3.0827,-0.28676 -3.26192,0.57352 -0.17922,0.86028 1.14705,2.22239 0.46599,2.90344 -0.68105,0.68107 -1.4338,2.11488 -0.86029,2.47332 0.57352,0.35846 1.89981,0.50184 1.72057,1.25458 -0.17922,0.75275 0.35845,2.58084 0.78859,2.76007 0.43015,0.17923 0.57351,1.64887 0.0716,1.79226 -0.50183,0.14341 -2.72423,0.35845 -3.08269,0.86027 -0.35844,0.50184 -2.545,-0.7169 -2.545,-0.7169 0,0 -2.72423,0.96783 -2.90344,1.64888 -0.17924,0.68107 -0.53769,1.1112 -1.68473,1.07534 -1.14704,-0.036 -1.97147,0.14341 -1.97147,0.57355 0,0.43011 -0.64521,-0.60939 0.21506,-1.43382 0.86028,-0.82443 2.2224,-2.15071 1.61303,-2.97514 -0.60935,-0.82444 -1.11118,-1.46965 -2.22239,-1.18289 -1.11119,0.28676 -2.47331,-0.3226 -1.64889,-1.11119 0.82445,-0.7886 0.35846,-2.07902 0.89614,-2.22239 0.53767,-0.14343 0.57352,-0.17923 0.75275,-0.78862 0.17922,-0.60935 0.43013,-2.25823 0.86029,-2.32991 0.43013,-0.0716 -1.1829,-0.32262 -0.64523,-0.57352 0.53767,-0.25091 3.01099,-1.36212 2.79591,-2.07903 -0.21506,-0.71689 -1.39793,-0.86027 -1.11118,-1.21873 0.28676,-0.35844 -1.21874,-0.86027 -2.25824,-0.86027 -1.03952,0 -3.08268,-1.07535 -4.19388,-0.82444 -1.1112,0.25091 -1.89979,1.36212 -2.652539,0.21507 -0.752746,-1.14704 -1.505491,-1.39796 -1.935633,-1.93565 -0.43014,-0.53767 -0.501837,-4.05047 -0.21507,-4.80323 0.286768,-0.75274 -0.394291,-1.29041 -0.931966,-1.4338 -0.537676,-0.14341 -1.003665,-0.21506 -1.397968,-0.96782 -0.394292,-0.75274 -0.609361,-0.86027 -0.967816,-0.93197 -0.358455,-0.0716 1.505491,0.60936 2.760075,0.21506 1.254572,-0.39429 1.541341,-1.36211 1.720561,-0.71689 0.179234,0.64521 1.075351,1.54135 2.114866,1.4338 1.0395,-0.10751 3.22605,1.07535 4.91078,-0.0359 1.68471,-1.1112 2.8676,-2.90345 2.61668,-4.01465 -0.25091,-1.11121 0.28676,-2.25825 1.5055,-2.65254 1.21873,-0.39429 3.87127,-2.79593 4.62402,-2.72425 0.75274,0.0717 3.01098,-0.68105 3.9071,-1.32625 0.89613,-0.64522 5.26922,-5.09001 6.48797,-5.69937 1.21872,-0.60938 4.40894,-2.76007 4.87492,-3.3336 0.46599,-0.57352 2.04318,-1.79225 2.545,-2.72423 0.50185,-0.931974 0.82445,-2.043165 1.8281,-2.07902 1.00367,-0.03576 4.33726,-1.36211 4.62403,-2.007314 0.28675,-0.6452 2.83175,-2.867606 2.65253,-3.799577 -0.17923,-0.931962 -0.75274,-1.46964 -1.18289,-1.46964 -0.43014,0 0.0716,-0.681064 -0.64521,-0.82444 -0.7169,-0.143413 -2.22239,-0.179232 -2.40161,-0.788595 -0.17923,-0.60937 -0.64523,-1.362115 -0.64523,-1.362115 0,0 0.35846,-3.118528 0.0716,-3.548664 -0.28677,-0.430136 2.04316,-0.430136 2.68838,-0.824435 0.64521,-0.3943 3.90711,-0.931977 3.90711,-1.613034 0,-0.681056 1.25459,-2.580848 1.97148,-2.652537 0.71691,-0.07171 2.47333,0.0717 3.2619,-0.394284 0.7886,-0.465989 2.2224,0.681042 3.19022,0.358447 0.96781,-0.322609 2.50916,0.286758 2.25824,-0.896125 -0.25093,-1.182898 -1.11119,-1.362114 -1.61303,-2.04317 -0.50183,-0.681057 0.28678,-0.537678 -1.21873,-1.541345 -1.5055,-1.003665 -4.94662,-3.010983 -4.94662,-3.727888 0,-0.716901 0.25092,-3.297749 -0.21507,-3.441126 -0.46599,-0.14338 -3.83542,-2.222398 -5.23338,-2.473315 -1.39797,-0.250913 -4.33727,-0.752746 -4.65986,-1.577179 -0.32261,-0.824439 -1.68472,-0.501834 -2.18656,-0.46599 -0.50183,0.03585 -3.08269,0.967817 -3.72789,0.46599 -0.64521,-0.501834 -2.54501,-0.46599 -2.93928,-0.215071 -0.39431,0.250912 -1.54135,0.03585 -2.43747,0.07168 -0.89613,0.03585 -1.14705,1.182888 -2.18656,1.326267 -1.0395,0.143379 -2.68839,1.46965 -2.79591,1.971479 -0.10751,0.501834 -1.50548,1.720564 -1.72056,2.114861 -0.21508,0.394296 -1.46965,2.545001 -1.36212,3.010988 0.10751,0.465989 0.21508,1.147045 -0.68107,0.896125 -0.89612,-0.250905 -1.64886,-1.07535 -1.46963,-2.401616 0.17923,-1.326272 1.00367,-3.58451 1.21873,-3.692044 0.21506,-0.107547 -0.57353,-0.07168 0.14342,-0.573521 0.71688,-0.501834 1.3621,-1.39796 1.57716,-2.043173 0.21508,-0.645213 1.68473,-2.580847 2.47332,-3.082678 0.7886,-0.501829 2.47332,-1.64887 2.72422,-2.258238 0.25092,-0.609367 -0.17921,-0.681058 0.28676,-0.931975 0.46599,-0.250913 0.3943,-0.179226 0.0716,-0.896125 -0.32262,-0.716902 -1.00368,-1.182888 -2.18657,-1.147044 -1.18289,0.03585 -0.68104,1.290423 -1.18289,0.824439 -0.50181,-0.465987 -3.40527,-3.58451 -3.40527,-3.58451 0,0 -0.39431,-1.182888 -0.10752,-1.577184 0.28678,-0.394297 -1.14702,-1.684719 -0.71689,-1.75641 0.43013,-0.07168 4.15803,0.537679 5.05415,0.107536 0.89613,-0.430141 1.72057,-0.07168 1.86396,-1.075355 0.1434,-1.003664 0.35843,-1.613027 -1.07536,-2.365777 -1.4338,-0.752745 -1.97148,-3.405281 -1.97148,-3.405281 0,0 -1.39797,-2.831759 -1.86394,-2.795918 -0.46599,0.03585 -0.86028,-0.430138 0.32259,-0.824434 1.1829,-0.394296 3.04684,-2.186551 3.04684,-2.903453 0,-0.716904 0.57352,-1.254578 1.07536,-1.147041 0.50182,0.107535 1.50549,-0.03584 1.72056,-1.182888 0.21506,-1.147042 -0.57352,-0.931976 -0.466,-1.433805 0.10752,-0.50183 0.28676,-2.32993 0.53768,-2.437464 0.25093,-0.107547 0.96782,-0.645212 1.39796,-0.430143 0.43015,0.215072 1.25459,-0.57352 1.57719,-0.967816 0.32261,-0.394296 0.8065,-0.752747 0.8065,-0.752747 z m 5.55269,-7.685484 c 0,0 1.49541,-1.115236 2.20513,-0.836426 0.7097,0.278809 0.86178,0.177424 0.10151,0.709696 -0.76039,0.532275 -0.98852,0.709697 -1.49544,0.659005 -0.50693,-0.05069 -0.81108,-0.532275 -0.81108,-0.532275 z m -3.87798,2.712057 c 0,0 1.41938,-1.622163 1.74889,-1.64751 0.3295,-0.02533 0.60831,-0.0507 0.48157,0.329504 -0.12667,0.380192 -0.43089,1.318006 -0.83643,1.21662 -0.40553,-0.101378 -1.39403,0.101389 -1.39403,0.101389 z m -0.0507,1.267315 c 0,0 -0.70969,-0.02536 -0.96314,0.253462 -0.25347,0.27881 -1.11523,1.44474 -0.65901,1.318007 0.45623,-0.126729 0.73505,-0.380192 0.88713,-0.557619 0.15207,-0.177422 0.45624,0.582967 0.63365,0.202771 0.17743,-0.380193 0.1015,-1.216621 0.1015,-1.216621 z M 75.219715,8.3493677 c 0,0 1.140586,-0.4308871 0.608314,-1.2419713 -0.532274,-0.8110792 -1.140584,-1.4447377 -0.456234,-1.6221634 0.684348,-0.1774221 1.546122,-0.4562316 1.546122,-1.064546 0,-0.6083096 -0.177421,-1.2673111 1.165933,-1.165927 1.343346,0.1013779 3.447099,0.1774253 4.156793,-0.025367 0.709692,-0.2027698 1.216618,0.3548475 1.774244,0.1520824 0.557614,-0.2027699 1.723544,-1.3180064 2.483938,-1.0138493 0.760382,0.3041525 2.433237,0.5322699 2.965512,0.4308873 0.532276,-0.1013935 1.039201,-0.4815824 1.520776,-0.1267302 0.481587,0.3548491 0.557627,1.1405857 0.228119,1.4193936 -0.329497,0.2788096 -0.659005,0.811084 0.887122,0.6843492 1.546126,-0.1267303 3.421761,0.9631628 3.421761,0.9631628 0,0 1.140579,-0.050688 2.103741,0.430887 0.963161,0.4815797 3.979364,1.6728561 4.106094,2.0023557 0.12674,0.3295009 0.63366,1.1152376 0.15209,1.5714733 -0.48159,0.4562302 0.43088,1.1912752 0.43088,1.1912752 0,0 1.01385,2.053051 0.40554,2.027703 -0.6083,-0.02536 -1.59682,-0.329501 -2.17978,-1.165928 C 99.957715,10.960027 98.690407,10.275674 98.006052,10.174292 97.321698,10.072901 95.192607,8.146589 93.899949,8.5014318 92.607279,8.8562808 92.024314,9.5913257 91.416012,9.9715212 90.807696,10.351714 89.869885,10.351714 89.591078,9.7687479 89.312271,9.1857851 89.5657,8.2479715 88.627916,7.6903525 87.690105,7.1327346 85.434285,6.5244231 84.876659,6.6004636 84.319045,6.6765031 83.077075,7.4875824 82.367382,7.1327346 81.657678,6.7778857 80.973335,6.4483848 80.26363,6.5244231 c -0.709693,0.07604 -1.926311,0.9378113 -2.230468,1.6221659 -0.304159,0.6843473 0.076,1.5714665 -0.608314,1.3940446 C 76.740499,9.363208 77.044651,8.7042059 76.512381,8.6028184 75.980112,8.5014286 75.219718,8.3493581 75.219718,8.3493581 Z M 72.53301,15.699794 c 0,0 -0.836431,-0.05069 -1.191279,0.3295 -0.354844,0.380197 -0.405539,0.760393 0,0.811084 0.405543,0.05069 0.557622,0.557618 0.202773,0.633658 -0.354847,0.07604 -1.064544,0.430887 -0.582966,0.532272 0.481581,0.10139 1.495435,-0.63366 1.495435,-0.63366 0,0 0.481576,-0.456229 1.115236,-0.101378 0.633657,0.35485 0.73504,0.68435 1.292659,0.456231 0.557617,-0.228113 0.811083,-0.405538 0.405544,-0.836427 C 74.864868,16.460186 74.788827,16.105339 74.256558,16.308108 73.724286,16.510882 72.53301,15.6998 72.53301,15.6998 Z M 47.186694,3.6349552 c 0,0 0.152082,-0.8617746 1.622163,-0.4308873 1.470086,0.4308873 2.712052,0.1774224 3.117593,0.9124668 0.405543,0.7350411 0.02536,1.5207759 -0.481578,1.5207759 -0.506925,0 -2.103743,-0.6589999 -2.382552,-0.5322698 -0.278809,0.1267307 -0.557619,0.4562316 -1.191277,0.2788095 -0.633657,-0.1774269 -2.33186,-0.4055396 -2.762749,-0.3548489 -0.430882,0.050688 -1.698198,-0.2281176 -2.610665,0.050688 -0.912467,0.2788096 -1.824938,0.6083092 -1.368702,1.0138543 0.456235,0.4055391 0.735045,0.6590017 1.647511,0.2534603 0.912468,-0.4055403 1.368698,-0.3041576 1.723546,-0.025375 0.354849,0.2788131 1.267317,-0.1267296 1.622164,0.025375 0.354849,0.1520824 0.785736,0.202769 0.684349,0.7857361 -0.101378,0.5829672 0,0.8871187 0.785737,0.6336572 0.785736,-0.2534603 1.495433,-0.7096966 2.053051,-0.3294996 0.557619,0.3801921 1.394045,0.8617707 2.4079,0.6336572 1.01385,-0.2281182 2.78809,-0.5576179 3.320362,-0.8871223 0.532276,-0.3295021 0.912471,-0.025326 0.988507,0.5322747 0.07604,0.5576166 0.506927,0.8110792 0.887123,0.7857312 0.380191,-0.025362 0.456231,0.5576231 0.582965,0.963162 0.126731,0.4055402 1.774239,0.1013781 1.774239,0.1013781 0,0 1.723551,0.3295045 2.433248,0.6843524 0.709697,0.354851 1.672855,0.152067 1.672855,-0.228116 0,-0.3801985 0.506927,-0.2027714 0.709697,0.304157 0.202769,0.506921 1.267314,0.532269 1.571467,0.456232 0.304157,-0.07603 0.304157,1.29266 0.988506,1.29266 0.684355,0 0.937816,0.582962 2.078399,0.253464 1.140584,-0.329502 1.16593,-1.292664 2.129092,-1.343356 0.963158,-0.05069 1.419389,-0.07604 1.444737,-0.81108 0.02536,-0.7350459 0.253461,-1.1405848 0.60831,-1.1659331 0.354847,-0.025324 0.430887,-0.6336572 0.02536,-0.8110793 C 72.862515,8.0198536 70.936194,8.2986583 70.606695,7.9691635 70.277192,7.6396615 70.632057,7.3355051 69.618189,7.3861964 68.604334,7.4368852 67.945333,7.5129271 67.767908,6.5497677 67.590489,5.5866108 68.148107,5.2064139 67.691868,4.9783015 67.235639,4.7501825 66.804752,4.0658332 66.8301,3.8377157 66.85542,3.6095984 65.968325,3.7109855 65.258628,3.3814808 c -0.709696,-0.3295 -1.495433,-0.3801921 -1.926322,-0.3295 -0.430887,0.050689 -0.152082,-1.0138539 -1.14058,-1.0138539 -0.988506,0 -2.33186,0.1774254 -2.762748,-0.3548492 -0.430888,-0.5322699 -3.624522,-0.98850626 -4.308872,-0.557619 -0.684349,0.4308889 -1.0392,0.4308889 -1.368698,0.3295062 -0.329505,-0.1013934 -1.774243,0.1267303 -2.382557,0.4055397 -0.60831,0.2788079 -1.318007,0.53227 -2.230474,0.2281175 -0.912467,-0.3041572 -1.723547,-0.4055444 -2.05305,-0.1774269 -0.329503,0.2281173 -0.633659,0.811084 -0.506925,1.2419713 0.126731,0.4308842 0.608312,0.4815794 0.608312,0.4815794 z m 8.541702,9.4795178 c 0,0 0.760393,-1.089894 1.140585,-0.811085 0.380196,0.278809 0.912466,0.709697 1.165932,0.354849 0.253461,-0.354849 1.039197,0.177426 0.05069,0.405543 -0.988507,0.228114 -2.205129,0.81108 -2.230474,0.557619 -0.02537,-0.253466 -0.126734,-0.506926 -0.126735,-0.506926 z m -3.447097,0.608308 c 0,0 1.875628,-0.329501 1.723551,-0.02533 -0.152083,0.304153 -0.152083,0.836428 -0.659007,0.81108 -0.506923,-0.02536 -0.659001,-0.532272 -0.912466,-0.329501 -0.253461,0.202771 -0.329501,0 -0.228113,-0.228118 0.101379,-0.228117 0.07603,-0.228117 0.07603,-0.228117 z m 0.937813,-2.331858 c 0,0 0.02538,-0.55762 0.27881,-0.380193 0.253465,0.177422 0.481579,0.405539 0.582967,0.126729 0.101378,-0.278809 0.45623,0.253464 0.45623,0.253464 0,0 0.430889,0.304156 0.608315,0.101389 0.177422,-0.20277 0.582962,0.45623 0.12673,0.684347 -0.456236,0.22812 -0.937816,0 -1.140586,-0.17742 -0.202771,-0.177427 -1.318006,0.202769 -1.089888,-0.152083 0.228113,-0.354848 0.177421,-0.456235 0.177421,-0.456235 z M 51.92645,9.9715308 c 0,0 -0.659001,0.2027702 -0.481578,0.5576192 0.177425,0.354848 0.582965,0.861773 0.760392,0.456232 0.177422,-0.405542 0.329499,-0.582966 0.126729,-0.709697 C 52.129224,10.148956 51.92645,9.9715308 51.92645,9.9715308 Z m -1.039198,1.5968172 c 0,0 -0.735041,0.05069 -0.912467,0.3295 -0.177421,0.278808 -0.228117,0.963157 0.152082,0.709697 0.380198,-0.253462 0.83643,0.07604 0.83643,0.07604 0,0 0.709698,0.253462 0.709698,-0.25346 0,-0.506928 0.152082,-0.811085 -0.152085,-0.63366 -0.304151,0.177423 -0.633655,-0.228116 -0.633655,-0.228116 z m -3.973295,8.114202 c 0,0 0.286759,0.07168 1.039505,-0.107523 0.752745,-0.179225 0.860285,-0.430143 1.899788,-0.358454 1.03951,0.07168 2.903451,-0.215067 3.261906,-0.609363 0.358452,-0.394295 1.039506,-1.254582 0.967817,-1.577184 -0.07168,-0.322609 0.824434,-0.752747 2.079016,-0.967818 1.254574,-0.215071 3.226054,-1.397961 3.871269,-1.362114 0.645211,0.03585 1.541337,0.394296 0.896124,0.967818 -0.645209,0.573521 0.573522,0.394296 0.573522,0.394296 0,0 0.609367,0.394296 1.362112,0.143379 0.75275,-0.250916 1.505497,-0.716901 1.863947,-0.681058 0.358452,0.03585 1.39796,1.003663 0.788593,1.505497 -0.609367,0.50183 -0.931973,0.752745 -1.469651,0.322602 -0.537674,-0.43014 -1.182889,-0.07168 -1.182889,-0.07168 0,0 -1.397954,-0.107523 -2.079013,0.394297 -0.681055,0.501831 -1.111195,-0.03585 -1.828097,-0.03585 -0.716904,0 -0.358455,1.469646 -0.931975,1.362112 -0.573521,-0.107547 -1.720564,-0.143377 -1.577185,-0.394296 0.143378,-0.250917 -0.215066,-0.860284 -0.465983,-0.465987 -0.250917,0.394295 0.322604,0.824437 -0.107547,1.147042 -0.430138,0.322604 -0.7169,1.075355 -1.111196,0.609367 -0.394297,-0.465988 -0.501831,-0.931972 -1.254576,-0.215072 -0.752752,0.716902 -2.903453,1.290422 -3.799583,1.362113 -0.896124,0.07168 -3.010985,0.286765 -2.903451,-0.537674 0.107547,-0.824439 0.107547,-0.824439 0.107547,-0.824439 z m -2.95722,8.584898 c 0,0 0.734823,-0.340525 1.541339,-0.483909 0.806513,-0.143378 2.079013,0.179224 2.867605,-0.44806 0.788591,-0.627291 1.666796,-0.448066 2.276161,-0.394296 0.609368,0.05377 1.648878,-0.01791 1.989404,-0.232995 0.340527,-0.215071 1.75641,-0.609368 1.917711,-0.609368 0.161302,0 0.824439,-0.465987 0.949894,-0.465987 0.125462,0 0.716905,0.681058 0.250918,0.84236 -0.465989,0.161304 -1.147043,-0.03585 -1.362113,0.358452 -0.215072,0.394296 0.01791,0.896129 -0.985741,0.860284 -1.003662,-0.03585 -2.312007,-0.107548 -2.993063,0.250916 -0.681057,0.358451 -0.896129,1.21873 -1.380036,1.129119 -0.483911,-0.08961 -1.021585,-0.519757 -2.079018,-0.340531 -1.057426,0.17923 -3.118521,0.519756 -3.118521,0.107548 0,-0.41222 0.12546,-0.573521 0.12546,-0.573521 z M 30.584866,29.58957 c 0,0 -0.101391,-0.963163 0.659003,-1.850281 0.76039,-0.88712 1.318008,-1.241968 1.165931,-2.027705 -0.152083,-0.785735 -0.430888,-1.394046 0.278809,-2.230472 0.709697,-0.836432 1.546123,-1.495434 1.799585,-1.520781 0.253465,-0.02536 1.140584,-0.861777 1.064545,-1.444739 -0.07603,-0.582964 0,-1.064545 -0.354848,-1.089891 -0.354849,-0.02536 -1.039199,0.10139 -0.27881,-0.608312 0.76039,-0.709697 1.140584,-0.532274 1.59682,-0.887122 0.456232,-0.354849 2.686706,-1.875625 2.686706,-1.875625 0,0 -0.253463,-1.013849 0.304157,-1.241966 0.557618,-0.22812 1.444741,-0.329505 1.850281,-0.456237 0.405539,-0.12673 1.267314,-0.93781 1.115236,-1.039197 -0.152082,-0.10139 0.177422,-0.785736 -0.887119,-0.55762 -1.064545,0.228119 -2.306517,0.456233 -2.737405,-0.02536 -0.430882,-0.481578 -0.12673,-0.93781 0.177426,-0.93781 0.304158,0 0.73504,-0.405544 0.506929,-0.481583 -0.22812,-0.07604 -1.115237,-1.039198 -1.926322,-0.836428 -0.81108,0.20277 -1.470085,0.481584 -2.002357,0.760391 -0.532274,0.27881 -2.382555,0.48158 -2.53463,0.68435 -0.152082,0.20277 0.101378,0.861777 -0.481582,0.963159 -0.582962,0.101389 -1.318006,0.608309 -1.419391,0.963159 -0.10139,0.354847 -0.735044,0.380194 -0.659004,0.557622 0.07604,0.177423 -0.253463,0.633657 0.861774,0.506922 1.115238,-0.12673 1.343356,-0.02533 1.546126,0.20277 0.20277,0.228117 0.963158,-0.20277 1.013849,0.10139 0.05069,0.304156 0.27881,0.633657 -0.329499,0.836426 -0.608311,0.202771 -1.546127,0.988508 -1.900973,1.318009 -0.354851,0.329504 -0.659007,0.380196 -0.709698,0.887122 -0.05068,0.506926 -0.101378,0.937811 -0.684349,1.267316 -0.582967,0.3295 -0.937815,0.40554 -1.064546,1.520775 -0.126731,1.115238 -0.253461,1.850283 -0.354847,2.002361 -0.101378,0.152083 -0.506928,1.165928 -0.27881,1.21662 0.228117,0.05069 0.659005,0.811084 0.912467,0.27881 0.253461,-0.53227 0.202769,-1.08989 0.582966,-1.241968 0.380192,-0.152083 0.73504,-0.177422 0.633657,0.60831 -0.10139,0.785737 -0.253465,2.407899 -0.329504,2.686709 -0.07604,0.278808 -0.53227,1.774241 -0.3295,2.281169 0.202769,0.506926 0.506927,0.709696 0.506927,0.709696 z m -1.546126,3.320362 c 0,0 0.798412,0.532276 0.342175,1.102567 -0.456232,0.570293 -0.950485,0.532271 -0.975832,0.925141 -0.02537,0.392865 0.253461,0.544945 0.418214,0.684349 0.164752,0.139399 0.05069,0.608311 -0.12673,0.697022 -0.177425,0.08871 -0.430887,1.127911 -1.064545,0.266137 -0.633658,-0.861775 -0.494253,-2.902154 0,-3.295019 0.494252,-0.392867 1.40672,-0.380197 1.406718,-0.380197 z m -1.318006,6.349251 c 0,0 -0.785737,0.215443 -0.836427,0.620982 -0.0507,0.405545 0.620982,0.798411 0.342174,0.91247 -0.278809,0.114065 -1.254641,0.595638 -1.20395,0.811081 0.05068,0.215444 -0.08871,0.899794 0.557619,0.582967 0.646331,-0.31683 1.406719,-1.634839 1.406719,-1.634839 0,0 0.443561,-0.05069 0.392866,-0.544943 -0.05069,-0.494253 -0.03803,-0.570293 -0.316826,-0.671679 -0.27881,-0.101378 -0.342175,-0.07604 -0.342175,-0.07604 z m 3.611846,-0.798407 c 0,0 -0.595637,0.266136 -0.849102,0.836428 -0.253462,0.570293 -0.215444,1.267316 -0.494254,1.495431 -0.278808,0.228116 -0.68435,0.659003 -0.722366,0.874447 -0.03803,0.215443 -0.06335,1.533451 0.114065,1.837607 0.177427,0.304154 0.101389,1.482761 0.468905,1.102564 0.367523,-0.380192 0.975836,-2.369879 0.975836,-2.369879 0,0 0.608312,-0.811084 0.861772,-0.887123 0.253466,-0.07603 0.354848,-2.129086 0.354848,-2.129086 0,0 -0.0127,-0.468908 -0.215444,-0.582967 -0.202769,-0.114065 -0.494252,-0.177422 -0.494252,-0.177422 z m -3.523137,5.943707 -0.430883,0.392865 c 0,0 -0.05069,0.10139 -0.07604,0.430889 -0.02537,0.329505 0.164749,0.684353 -0.07604,0.709698 -0.240792,0.02536 -0.26614,0.494252 -0.177427,0.557617 0.08872,0.06337 0.380195,0.671679 0.519601,0.253466 0.139399,-0.418214 0,-0.811083 0.114065,-0.849102 0.114065,-0.03802 0.392871,-1.013853 0.342173,-1.229297 -0.05069,-0.215446 -0.215443,-0.266136 -0.215444,-0.266136 z m 3.333041,6.425288 c 0,0 0.202768,0.633659 -0.152083,0.861772 -0.354851,0.228118 -0.60831,-0.05068 -0.861777,0.405544 -0.25346,0.456232 -0.481579,1.08989 -0.582962,1.596817 -0.10139,0.506927 -0.354848,1.318006 -0.532275,1.089889 -0.177421,-0.228115 -0.354847,-0.659002 -0.202768,-0.912467 0.152082,-0.253462 0.329499,-0.735041 -0.02538,-0.785732 -0.354848,-0.0507 -0.836431,-0.27881 -0.506927,-0.608314 0.329502,-0.329502 0.76039,-0.582961 0.811081,-0.937812 0.05068,-0.354847 -0.02537,-1.013853 0.253465,-1.191276 0.27881,-0.177424 0.633657,-0.633657 0.963159,-0.354847 0.3295,0.27881 0.836426,0.836426 0.836426,0.836426 z"
       vector-effect="non-scaling-stroke" />
  </g>
</svg>
